<svg width="144" height="132" viewBox="0 0 144 132" fill="none" xmlns="http://www.w3.org/2000/svg">
<path d="M12.4923 30.1822V14.3872L10 13.8016V12.1921L15.5715 12.0449H19.2377C24.9567 12.0449 28.4754 15.5553 28.4754 21.9904C28.4754 28.4255 24.6647 32.5214 18.7982 32.5214H10V30.7678L12.4923 30.1822ZM25.1011 22.1406C25.1011 16.7295 22.7564 14.3903 19.0902 14.3903H15.5715V30.1853H18.9427C22.6089 30.1853 25.1011 27.6989 25.1011 22.1406Z" fill="#0055FF"/>
<path d="M38.8807 30.9147V32.5243H31.2563V30.9147L33.7486 30.182V19.3597L31.2563 18.7741V17.1646L36.6803 17.0174V30.182L38.8807 30.9147ZM35.07 10.147C36.244 10.147 36.9754 10.7325 36.9754 12.1949C36.9754 13.5102 35.9489 14.2429 35.07 14.2429C33.8961 14.2429 33.1647 13.5102 33.1647 12.1949C33.1647 10.8797 34.0436 10.147 35.07 10.147Z" fill="#0055FF"/>
<path d="M51.634 16.7293C54.8608 16.7293 56.3266 18.7772 56.3266 21.9933V30.1851L58.5269 30.9178V32.5274H51.4896V30.9178L53.3949 30.1851V22.2876C53.3949 20.2396 52.6635 19.2156 50.7551 19.2156C48.2628 19.2156 46.505 21.5549 46.505 21.5549V30.1851L48.4104 30.9178V32.5274H41.0811V30.9178L43.5733 30.1851V19.3597L41.0811 18.7742V17.1646L45.9181 17.0175L46.1824 19.093C46.8861 18.4799 49.2032 16.7231 51.6371 16.7231L51.634 16.7293Z" fill="#0055FF"/>
<path d="M70.8376 16.7294C74.0644 16.7294 75.5302 18.7774 75.5302 21.9934V30.1853L77.7305 30.918V32.5275H70.6932V30.918L72.5985 30.2159V22.2877C72.5985 19.9761 71.6028 19.1882 70.1062 19.1882C68.6096 19.1882 66.6767 20.2398 65.7087 21.5581V30.1883L67.614 30.9211V32.5306H60.2847V30.9211L62.7769 30.1883V12.3392L60.2847 11.7536V10.1472L65.7087 10V18.8326C66.6183 18.0723 68.6711 16.7264 70.8407 16.7264L70.8376 16.7294Z" fill="#0055FF"/>
<path d="M87.1101 30.4767C90.0418 30.4767 92.0362 28.8672 92.0362 28.8672L93.0626 30.3878C93.0626 30.3878 90.3368 32.8159 86.8181 32.8159C82.1255 32.8159 79.7808 29.744 79.7808 24.9184C79.7808 20.0928 82.7125 16.7266 86.9656 16.7266C91.2188 16.7266 93.1241 19.2129 93.1241 23.6001C93.1241 24.3328 92.9766 25.1514 92.9766 25.1514L82.86 25.2096C82.86 28.4287 84.5901 30.4736 87.1101 30.4736V30.4767ZM86.8181 19.0106C84.4734 19.0106 83.1519 20.8255 82.9768 23.0176H90.0141C90.0141 20.8225 89.1629 19.0106 86.8181 19.0106Z" fill="#0055FF"/>
<path d="M103.234 30.9147V32.5243H95.6099V30.9147L98.1021 30.182V19.3597L95.6099 18.7741V17.1646L101.034 17.0174V30.182L103.234 30.9147ZM99.4236 10.147C100.597 10.147 101.329 10.7325 101.329 12.1949C101.329 13.5102 100.302 14.2429 99.4236 14.2429C98.2496 14.2429 97.5182 13.5102 97.5182 12.1949C97.5182 10.8797 98.3971 10.147 99.4236 10.147Z" fill="#0055FF"/>
<path d="M114.964 16.7293C116.43 16.7293 117.604 17.1677 117.604 17.1677L117.456 21.4077H115.551L115.112 19.2126C112.911 19.2126 111.504 20.6474 110.861 21.4935V30.182L113.793 30.9148V32.5243H105.438V30.9148L107.93 30.182V19.3597L105.438 18.7742V17.1646L110.275 17.0175L110.539 19.1513C111.273 18.3327 112.973 16.7231 114.967 16.7231L114.964 16.7293Z" fill="#0055FF"/>
<path d="M133.434 24.48C133.434 29.4527 130.502 32.8159 126.104 32.8159C121.707 32.8159 119.067 30.1824 119.067 24.9184C119.067 19.9457 122.146 16.7266 126.544 16.7266C130.941 16.7266 133.434 19.7985 133.434 24.4769V24.48ZM122.146 24.7712C122.146 28.2816 123.32 30.4767 126.252 30.4767C129.183 30.4767 130.357 28.4287 130.357 24.6271C130.357 21.408 129.331 19.0688 126.399 19.0688C123.468 19.0688 122.149 20.9696 122.149 24.7743L122.146 24.7712Z" fill="#0055FF"/>
<path d="M12.6398 52.2653V50.8029C12.6398 46.8541 14.6926 44.8062 19.3852 44.8062C22.4644 44.8062 25.2486 45.7995 25.2486 45.7995V49.3374H22.9039L22.4644 47.2312C22.4644 47.2312 21.1461 46.9982 19.5327 46.9982C16.601 46.9982 15.5746 48.3134 15.5746 50.2173V52.2653L25.6912 52.1181V65.2827L27.8915 66.0154V67.6249H20.5622V66.0154L22.7625 65.2827V54.4604H15.5776V65.2827L17.9808 66.0154V67.6249H10.1475V66.0154L12.6398 65.2827V54.4604H10V52.5596L12.6398 52.2683V52.2653Z" fill="#0055FF"/>
<path d="M40.1994 54.4602C40.1994 54.4602 39.0255 54.1689 37.5597 54.1689C34.7755 54.1689 33.1621 55.9256 33.1621 59.5801C33.1621 63.5288 34.9199 65.5768 37.7072 65.5768C40.4945 65.5768 42.2523 63.8201 42.2523 63.8201L43.2787 65.5768C43.2787 65.5768 40.6389 67.916 37.4152 67.916C32.5782 67.916 30.0859 64.8441 30.0859 59.8713C30.0859 55.1899 33.0177 51.8267 37.7103 51.8267C40.35 51.8267 42.6948 52.9978 42.6948 52.9978L42.5473 56.9466H40.642L40.2025 54.4602H40.1994Z" fill="#0055FF"/>
<path d="M59.4028 59.5801C59.4028 64.5528 56.4711 67.916 52.0735 67.916C47.6759 67.916 45.0361 65.2825 45.0361 60.0185C45.0361 55.0458 48.1154 51.8267 52.5129 51.8267C56.9105 51.8267 59.4028 54.8986 59.4028 59.577V59.5801ZM48.1154 59.8713C48.1154 63.3817 49.2893 65.5768 52.221 65.5768C55.1527 65.5768 56.3266 63.5288 56.3266 59.7272C56.3266 56.5081 55.3002 54.1689 52.3685 54.1689C49.4368 54.1689 48.1184 56.0697 48.1184 59.8744L48.1154 59.8713Z" fill="#0055FF"/>
<path d="M78.9019 65.8679V67.4775L74.0649 67.6247L73.7729 65.5767C73.0692 66.1899 70.7521 67.9159 68.3489 67.9159C65.1222 67.9159 63.6563 65.8986 63.6563 62.6795V54.4601L61.1641 53.8745V52.265L66.5881 52.1178V62.3852C66.5881 64.4332 67.3225 65.4265 69.2278 65.4265C71.7201 65.4265 73.4779 63.1149 73.4779 63.1149V54.457L70.9856 53.8715V52.2619L76.4096 52.1147V65.2793L78.9019 65.8649V65.8679Z" fill="#0055FF"/>
<path d="M12.4062 100.558C12.4062 100.558 13.2851 100.821 14.8678 100.821C16.6286 100.821 18.1805 100.325 18.1805 98.5099C18.1805 95.3521 10 96.8145 10 91.4892C10 88.4479 12.3448 86.9272 15.3656 86.9272C17.6827 86.9272 20.3809 87.8041 20.3809 87.8041L20.2917 91.7528H18.3864L17.9163 89.4719C17.9163 89.4719 17.0066 89.1193 15.5408 89.1193C14.0749 89.1193 12.9317 89.5884 12.9317 91.0783C12.9317 94.2085 21.1123 93.0098 21.1123 98.0101C21.1123 101.373 18.1805 103.014 14.6619 103.014C11.9637 103.014 10.0277 102.37 10.0277 102.37V98.0408H12.0805L12.4032 100.558H12.4062Z" fill="#0055FF"/>
<path d="M31.2288 101.116V102.725H23.6045V101.116L26.0968 100.383V89.5605L23.6045 88.975V87.3654L29.0285 87.2183V100.383L31.2288 101.116ZM27.4151 80.3447C28.589 80.3447 29.3204 80.9303 29.3204 82.3927C29.3204 83.7079 28.294 84.4406 27.4151 84.4406C26.2412 84.4406 25.5098 83.7079 25.5098 82.3927C25.5098 81.0775 26.3887 80.3447 27.4151 80.3447Z" fill="#0055FF"/>
<path d="M43.8348 86.9272C45.946 86.9272 47.2367 87.9206 47.9097 89.4443C48.2908 89.0641 50.6663 86.9272 53.3644 86.9272C56.5912 86.9272 57.9095 88.9752 57.9095 92.1912V100.383L60.1098 101.116V102.725H53.0725V101.116L54.9778 100.383V92.4855C54.9778 90.2322 54.1573 89.4136 52.4855 89.4136C51.0781 89.4136 49.3479 90.3487 48.3799 91.7528V100.383L50.2852 101.116V102.725H43.5429V101.116L45.4482 100.383V92.4855C45.4482 90.2322 44.6277 89.386 43.0143 89.386C41.49 89.386 39.7015 90.5572 38.8503 91.7559V100.386L40.7556 101.119V102.728H33.4263V101.119L35.9185 100.386V89.5638L33.4263 88.9783V87.3687L38.2633 87.2216L38.5276 89.2971C39.2037 88.6533 41.4316 86.9272 43.8348 86.9272Z" fill="#0055FF"/>
<path d="M71.5414 86.927C75.7915 86.927 77.8443 89.999 77.8443 94.5333C77.8443 99.506 75.352 103.016 69.928 103.016C68.96 103.016 68.0811 102.842 67.2882 102.606V107.256L70.3675 107.842V109.452H62.0118V107.842L64.3565 107.256V89.5575L61.8643 88.9719V87.3624L66.8488 87.2152L67.0823 88.8524C67.9613 88.0338 69.5162 86.9209 71.5383 86.9209L71.5414 86.927ZM70.3675 100.677C73.7694 100.677 74.7651 98.0436 74.7651 94.8276C74.7651 91.6116 73.5911 89.2693 70.9544 89.2693C68.3177 89.2693 67.2882 91.3173 67.2882 91.3173V100.092C67.2882 100.092 68.1671 100.677 70.3675 100.677Z" fill="#0055FF"/>
<path d="M88.1666 101.116V102.725H80.0444V101.116L82.5367 100.383V82.54L80.0444 81.9545V80.3449L85.5268 80.1978V100.383L88.1666 101.116Z" fill="#0055FF"/>
<path d="M96.8146 100.677C99.7464 100.677 101.741 99.0678 101.741 99.0678L102.767 100.588C102.767 100.588 100.041 103.017 96.5227 103.017C91.8301 103.017 89.4854 99.9447 89.4854 95.1191C89.4854 90.2935 92.4171 86.9272 96.6702 86.9272C100.923 86.9272 102.829 89.4136 102.829 93.8008C102.829 94.5335 102.681 95.3521 102.681 95.3521L92.5646 95.4103C92.5646 98.6294 94.2947 100.674 96.8146 100.674V100.677ZM96.5227 89.2082C94.1779 89.2082 92.8565 91.0232 92.6814 93.2152H99.7187C99.7187 91.0201 98.8675 89.2082 96.5227 89.2082Z" fill="#0055FF"/>
<path d="M107.868 100.558C107.868 100.558 108.747 100.821 110.33 100.821C112.091 100.821 113.642 100.325 113.642 98.5099C113.642 95.3521 105.462 96.8145 105.462 91.4892C105.462 88.4479 107.807 86.9272 110.828 86.9272C113.145 86.9272 115.843 87.8041 115.843 87.8041L115.754 91.7528H113.848L113.378 89.4719C113.378 89.4719 112.469 89.1193 111.003 89.1193C109.537 89.1193 108.394 89.5884 108.394 91.0783C108.394 94.2085 116.574 93.0098 116.574 98.0101C116.574 101.373 113.642 103.014 110.124 103.014C107.426 103.014 105.49 102.37 105.49 102.37V98.0408H107.542L107.865 100.558H107.868Z" fill="#0055FF"/>
<path d="M11.0249 121.934C17.3001 119.947 23.6891 118.335 30.1763 117.206C36.2334 116.152 42.3519 115.523 48.4827 115.094C55.351 114.613 62.2378 114.26 69.1215 114.15C76.4324 114.033 83.7432 114.19 91.0479 114.487C98.3526 114.784 105.731 115.232 113.067 115.695C113.97 115.753 114.874 115.808 115.777 115.867C116.846 115.934 116.843 114.272 115.777 114.205C108.442 113.742 101.106 113.279 93.7615 112.945C86.4229 112.611 79.0783 112.405 71.7305 112.461C64.6993 112.513 57.6743 112.844 50.6584 113.288C44.4354 113.684 38.2217 114.251 32.0601 115.22C25.6497 116.228 19.3222 117.694 13.1084 119.555C12.2633 119.809 11.4213 120.07 10.5793 120.334C9.5621 120.655 9.9954 122.259 11.0218 121.934H11.0249Z" fill="#0055FF"/>
</svg>
